<?xml version="1.0" encoding="utf-8"?>
<!-- Generator: Adobe Illustrator 26.0.2, SVG Export Plug-In . SVG Version: 6.00 Build 0)  -->
<svg version="1.1" id="Layer_1" xmlns="http://www.w3.org/2000/svg" xmlns:xlink="http://www.w3.org/1999/xlink" x="0px" y="0px"
	 viewBox="0 0 50 50" style="enable-background:new 0 0 50 50;" xml:space="preserve">
<style type="text/css">
	.st0{fill:#FFFFFF;}
</style>
<g>
	<path class="st0" d="M3,31.8c0.7-0.2,0.7-0.2,0.7-0.9c0-2.2,0-4.4,0-6.6c0-0.3,0.1-0.4,0.4-0.6c2.2-1,4.4-2,6.7-2.9
		c0.1,0,0.2-0.1,0.4-0.1c0,2.6,0,5.1,0,7.8c0.3-0.1,0.6-0.2,1-0.4c0,2.6,0,5.2,0,7.8c0.6-0.4,1-0.7,1.5-1c0.1-0.1,0.1-0.3,0.1-0.5
		c0-4.3,0-8.6,0-12.9c0-3.2,0-6.5,0-9.7c0-0.2,0-0.4,0.2-0.6c3.6-2.3,7.2-4.6,10.7-6.8c0.1,0,0.1-0.1,0.2-0.1c0,13.8,0,27.6,0,41.4
		c-0.2,0-0.4,0-0.5,0c-6.9,0-13.9,0-20.8,0c-0.2,0-0.4,0-0.6,0C3,41.1,3,36.5,3,31.8z M19.7,29.4c0.1,0,0.1,0,0.1,0
		c1.2-0.8,2.4-1.5,3.7-2.3c0.1-0.1,0.2-0.3,0.2-0.4c0-0.9,0-1.7,0-2.6c0-0.1,0-0.3,0-0.5c-1.3,0.9-2.6,1.7-3.8,2.5
		c-0.1,0.1-0.2,0.2-0.2,0.3C19.7,27.4,19.7,28.4,19.7,29.4z M19.7,13.2c1.1-0.7,2.2-1.4,3.3-2c0.6-0.3,0.8-0.7,0.7-1.4
		c-0.1-0.8,0-1.6,0-2.4c-0.1,0-0.1,0-0.1,0c-1.2,0.8-2.5,1.6-3.7,2.4c-0.1,0.1-0.2,0.2-0.2,0.3C19.7,11.1,19.7,12.1,19.7,13.2z
		 M23.7,12.8c-1.4,0.9-2.6,1.7-3.9,2.5c-0.1,0-0.1,0.2-0.1,0.2c0,1,0,2,0,3.1c0.1,0,0.1,0,0.2-0.1c1.2-0.8,2.4-1.5,3.6-2.3
		c0.1-0.1,0.2-0.2,0.2-0.3C23.7,14.9,23.7,13.9,23.7,12.8z M19.7,34.9c0.1,0,0.1,0,0.1,0c0.9-0.6,1.8-1.2,2.7-1.6
		c1-0.5,1.4-1.1,1.2-2.2c-0.1-0.6,0-1.3,0-1.9c-0.1,0-0.1,0-0.1,0c-1.2,0.8-2.5,1.6-3.7,2.4c-0.1,0-0.2,0.1-0.2,0.2
		C19.7,32.8,19.7,33.8,19.7,34.9z M19.7,24.1c1.3-0.8,2.6-1.6,3.8-2.4c0.1-0.1,0.2-0.3,0.2-0.4c0-0.5,0-1.1,0-1.6c0-0.5,0-0.9,0-1.4
		c-0.1,0-0.2,0-0.2,0c-1.2,0.8-2.4,1.6-3.6,2.4c-0.1,0.1-0.2,0.2-0.2,0.3C19.7,22,19.7,23,19.7,24.1z M18.6,21.5
		c-1.2,0.8-2.3,1.5-3.3,2.2c-0.1,0.1-0.1,0.2-0.1,0.4c0,0.8,0,1.6,0,2.4c0,0.2,0,0.3,0,0.6c1.2-0.7,2.2-1.4,3.3-2.1
		c0.1-0.1,0.2-0.2,0.2-0.3C18.6,23.6,18.6,22.6,18.6,21.5z M18.6,26.9c-1.2,0.8-2.2,1.4-3.3,2.2c-0.1,0-0.1,0.2-0.2,0.2
		c0,1,0,2,0,3.1c1.2-0.7,2.3-1.4,3.4-2.1c0.1,0,0.1-0.2,0.1-0.3C18.6,29,18.6,28,18.6,26.9z M15.1,16.1c1.2-0.7,2.2-1.4,3.3-2.1
		c0.1,0,0.2-0.1,0.2-0.2c0-1,0-2,0-3.1c-0.1,0-0.1,0-0.2,0c-1,0.7-2.1,1.3-3.1,2c-0.1,0.1-0.2,0.2-0.2,0.3
		C15.1,14,15.1,15,15.1,16.1z M18.5,16.2c-0.1,0-0.1,0-0.1,0c-1.1,0.7-2.1,1.3-3.2,2c-0.1,0.1-0.2,0.3-0.2,0.4c0,0.5,0,1.1,0,1.6
		c0,0.4,0,0.8,0,1.3c1.2-0.7,2.3-1.4,3.3-2.1c0.1,0,0.1-0.1,0.1-0.2C18.6,18.2,18.5,17.2,18.5,16.2z M18.6,32.4
		c-1.2,0.8-2.3,1.5-3.3,2.2c-0.1,0.1-0.1,0.2-0.1,0.4c0,0.9,0,1.7,0,2.6c0,0.1,0,0.2,0.1,0.3c1.1-0.7,2.2-1.4,3.3-2.1
		c0.1,0,0.1-0.2,0.1-0.3C18.6,34.5,18.6,33.5,18.6,32.4z M7.1,29.2c-0.8,0.4-1.6,0.7-2.4,1.1c-0.1,0-0.1,0.1-0.1,0.2
		c0,0.9,0,1.8,0,2.8c0.6-0.3,1.1-0.5,1.6-0.7c0.7-0.2,1-0.6,0.9-1.4C7.1,30.6,7.1,29.9,7.1,29.2z M7.7,31.8c0.8-0.4,1.6-0.7,2.3-1
		c0.1,0,0.2-0.2,0.2-0.2c0-0.9,0-1.8,0-2.8c-0.8,0.4-1.6,0.7-2.4,1.1c-0.1,0-0.1,0.2-0.1,0.3C7.7,30,7.7,30.9,7.7,31.8z M8,40.7
		c0.1,0,0.1,0,0.1,0c0.5-0.2,0.9-0.5,1.4-0.6c0.8-0.2,1.1-0.7,1-1.5c-0.1-0.6,0-1.3,0-2c-0.8,0.4-1.6,0.7-2.3,1.1
		C8.1,37.8,8,38,8,38.1C8,39,8,39.8,8,40.7z M7.2,38.1c-0.5,0.2-0.9,0.5-1.3,0.6c-1,0.3-1.3,0.9-1.2,1.9c0.1,0.5,0,1.1,0,1.7
		c0.8-0.4,1.6-0.7,2.3-1c0.1,0,0.2-0.2,0.2-0.3C7.2,40,7.2,39.1,7.2,38.1z M7.6,27c0.6-0.2,1-0.5,1.5-0.7c0.8-0.2,1.1-0.7,1-1.5
		c-0.1-0.6,0-1.3,0-2c-0.8,0.4-1.6,0.7-2.4,1.1c-0.1,0-0.1,0.2-0.1,0.3C7.6,25.1,7.6,26,7.6,27z M4.4,28.4c0.8-0.4,1.6-0.7,2.3-1
		c0.1,0,0.2-0.2,0.2-0.4c0-0.7,0-1.4,0-2.1c0-0.2,0-0.3,0-0.6c-0.8,0.4-1.6,0.7-2.3,1.1c-0.1,0-0.2,0.2-0.2,0.3
		C4.4,26.6,4.4,27.5,4.4,28.4z M10.5,32.1c-0.8,0.4-1.6,0.7-2.4,1.1c-0.1,0-0.1,0.2-0.1,0.2c0,0.9,0,1.8,0,2.8
		c0.8-0.4,1.6-0.7,2.4-1.1c0.1,0,0.1-0.1,0.1-0.2C10.5,34,10.5,33.1,10.5,32.1z M7.2,33.6c-0.5,0.2-0.8,0.5-1.3,0.6
		c-1,0.3-1.4,0.9-1.3,1.9c0.1,0.5,0,1,0,1.6c0.8-0.4,1.6-0.7,2.3-1c0.1,0,0.2-0.2,0.2-0.2C7.2,35.5,7.2,34.6,7.2,33.6z"/>
	<path class="st0" d="M35.1,45.7c-3,0-6,0-9,0c0-13.7,0-27.5,0-41.2c0.1,0.1,0.2,0.1,0.3,0.2c2.8,1.8,5.6,3.7,8.4,5.5
		c0.2,0.1,0.3,0.3,0.3,0.5c0,11.6,0,23.1,0,34.7C35.1,45.4,35.1,45.5,35.1,45.7z"/>
	<path class="st0" d="M35.9,29.9c1.4,0.5,2.8,0.9,4.2,1.3c2.2,0.7,4.3,1.4,6.5,2.1c0.2,0.1,0.4,0.1,0.4,0.4c0,3.8,0,7.7,0,11.5
		c0,0.1,0,0.1,0,0.2c-3.7,0-7.4,0-11.1,0C35.9,40.3,35.9,35.1,35.9,29.9z M41.4,37.2c1.1,0.3,2.2,0.6,3.4,1c0-0.9,0-1.7,0-2.5
		c0-0.1-0.1-0.2-0.1-0.3c-1.1-0.4-2.1-0.8-3.2-1.2C41.4,35.3,41.4,36.2,41.4,37.2z M44.8,43.3c0-0.8,0-1.6,0-2.3
		c0-0.3-0.1-0.4-0.3-0.5c-0.9-0.3-1.8-0.6-2.7-1c-0.1,0-0.3-0.1-0.4-0.1c0,1,0,1.9,0,2.9C42.5,42.7,43.6,43,44.8,43.3z M40.5,42.1
		c0-0.9,0-1.6,0-2.4c0-0.2-0.1-0.3-0.3-0.4c-0.9-0.3-1.8-0.7-2.7-1c-0.1,0-0.2,0-0.4-0.1c0,0.9,0,1.8,0,2.7c0,0.1,0.1,0.2,0.2,0.2
		C38.4,41.5,39.4,41.8,40.5,42.1z M40.5,37c0-0.8,0-1.6,0-2.3c0-0.3-0.1-0.4-0.4-0.5c-0.6-0.2-1.1-0.4-1.7-0.6
		c-0.4-0.2-0.8-0.3-1.3-0.5c0,1,0,1.9,0,2.8c0,0.1,0.1,0.2,0.2,0.2C38.4,36.4,39.4,36.7,40.5,37z"/>
</g>
</svg>
