<?xml version="1.0" encoding="utf-8"?>
<!-- Generator: Adobe Illustrator 26.0.2, SVG Export Plug-In . SVG Version: 6.00 Build 0)  -->
<svg version="1.1" id="Layer_1" xmlns="http://www.w3.org/2000/svg" xmlns:xlink="http://www.w3.org/1999/xlink" x="0px" y="0px"
	 viewBox="0 0 20 20" style="enable-background:new 0 0 20 20;" xml:space="preserve">
<style type="text/css">
	.st0{fill:#FFFFFF;}
</style>
<g>
	<path class="st0" d="M1.4,12.7c0.3-0.1,0.3-0.1,0.3-0.3c0-0.9,0-1.7,0-2.6c0-0.1,0-0.2,0.1-0.2c0.9-0.4,1.7-0.8,2.6-1.1
		c0,0,0.1,0,0.2-0.1c0,1,0,2,0,3c0.1-0.1,0.3-0.1,0.4-0.1c0,1,0,2,0,3.1c0.2-0.1,0.4-0.3,0.6-0.4c0,0,0-0.1,0-0.2c0-1.7,0-3.4,0-5.1
		c0-1.3,0-2.5,0-3.8c0-0.1,0-0.2,0.1-0.2c1.4-0.9,2.8-1.8,4.2-2.7c0,0,0,0,0.1,0c0,5.4,0,10.8,0,16.2c-0.1,0-0.1,0-0.2,0
		c-2.7,0-5.4,0-8.2,0c-0.1,0-0.1,0-0.2,0C1.4,16.3,1.4,14.5,1.4,12.7z M7.9,11.7C7.9,11.7,8,11.7,7.9,11.7c0.5-0.3,1-0.6,1.5-0.9
		c0,0,0.1-0.1,0.1-0.2c0-0.3,0-0.7,0-1c0-0.1,0-0.1,0-0.2c-0.5,0.3-1,0.6-1.5,1c0,0-0.1,0.1-0.1,0.1C7.9,10.9,7.9,11.3,7.9,11.7z
		 M7.9,5.4c0.4-0.3,0.9-0.6,1.3-0.8c0.2-0.1,0.3-0.3,0.3-0.5c0-0.3,0-0.6,0-1c0,0,0,0-0.1,0C8.9,3.4,8.5,3.7,8,4.1
		c0,0-0.1,0.1-0.1,0.1C7.9,4.6,7.9,5,7.9,5.4z M9.5,5.2c-0.5,0.3-1,0.7-1.5,1c0,0-0.1,0.1-0.1,0.1c0,0.4,0,0.8,0,1.2
		c0,0,0.1,0,0.1,0c0.5-0.3,0.9-0.6,1.4-0.9c0,0,0.1-0.1,0.1-0.1C9.5,6.1,9.5,5.7,9.5,5.2z M7.9,13.9C7.9,13.9,8,13.9,7.9,13.9
		c0.4-0.2,0.7-0.5,1.1-0.6c0.4-0.2,0.5-0.4,0.5-0.8c0-0.2,0-0.5,0-0.7c0,0,0,0-0.1,0c-0.5,0.3-1,0.6-1.4,0.9c0,0-0.1,0.1-0.1,0.1
		C7.9,13.1,7.9,13.5,7.9,13.9z M7.9,9.6c0.5-0.3,1-0.6,1.5-0.9c0,0,0.1-0.1,0.1-0.2c0-0.2,0-0.4,0-0.6c0-0.2,0-0.4,0-0.6
		c0,0-0.1,0-0.1,0C8.9,7.7,8.5,8,8,8.3c0,0-0.1,0.1-0.1,0.1C7.9,8.8,7.9,9.2,7.9,9.6z M7.5,8.6C7,8.9,6.6,9.2,6.2,9.5
		c0,0-0.1,0.1-0.1,0.1c0,0.3,0,0.6,0,0.9c0,0.1,0,0.1,0,0.2C6.6,10.5,7,10.2,7.4,10c0,0,0.1-0.1,0.1-0.1C7.5,9.4,7.5,9.1,7.5,8.6z
		 M7.5,10.8C7,11,6.6,11.3,6.2,11.6c0,0-0.1,0.1-0.1,0.1c0,0.4,0,0.8,0,1.2c0.5-0.3,0.9-0.6,1.3-0.8c0,0,0-0.1,0-0.1
		C7.5,11.6,7.5,11.2,7.5,10.8z M6.1,6.5C6.6,6.2,7,6,7.4,5.7c0,0,0.1-0.1,0.1-0.1c0-0.4,0-0.8,0-1.2c0,0-0.1,0-0.1,0
		C7,4.7,6.6,4.9,6.2,5.2c0,0-0.1,0.1-0.1,0.1C6.1,5.7,6.1,6.1,6.1,6.5z M7.5,6.5C7.4,6.5,7.4,6.5,7.5,6.5C7,6.8,6.6,7.1,6.2,7.3
		c0,0-0.1,0.1-0.1,0.2c0,0.2,0,0.4,0,0.6c0,0.2,0,0.3,0,0.5C6.6,8.4,7,8.1,7.4,7.8c0,0,0-0.1,0-0.1C7.5,7.3,7.5,6.9,7.5,6.5z
		 M7.5,12.9c-0.5,0.3-0.9,0.6-1.3,0.9c0,0,0,0.1-0.1,0.1c0,0.3,0,0.7,0,1c0,0,0,0.1,0,0.1c0.4-0.3,0.9-0.5,1.3-0.8
		c0,0,0.1-0.1,0.1-0.1C7.5,13.7,7.5,13.3,7.5,12.9z M3,11.6c-0.3,0.2-0.6,0.3-0.9,0.4c0,0-0.1,0.1-0.1,0.1c0,0.4,0,0.7,0,1.1
		C2.2,13.1,2.4,13,2.6,13C2.9,12.9,3,12.7,3,12.4C3,12.2,3,11.9,3,11.6z M3.2,12.7c0.3-0.1,0.6-0.3,0.9-0.4c0,0,0.1-0.1,0.1-0.1
		c0-0.4,0-0.7,0-1.1c-0.3,0.2-0.6,0.3-0.9,0.4c0,0,0,0.1,0,0.1C3.2,12,3.2,12.3,3.2,12.7z M3.4,16.2C3.4,16.2,3.4,16.2,3.4,16.2
		C3.6,16.1,3.8,16,4,15.9c0.3-0.1,0.4-0.3,0.4-0.6c0-0.2,0-0.5,0-0.8C4,14.7,3.7,14.9,3.4,15c0,0-0.1,0.1-0.1,0.1
		C3.3,15.5,3.4,15.8,3.4,16.2z M3,15.1c-0.2,0.1-0.3,0.2-0.5,0.2C2.1,15.5,2,15.7,2,16.1c0,0.2,0,0.4,0,0.7c0.3-0.1,0.6-0.3,0.9-0.4
		c0,0,0.1-0.1,0.1-0.1C3,15.9,3,15.5,3,15.1z M3.2,10.8c0.2-0.1,0.4-0.2,0.6-0.3c0.3-0.1,0.4-0.3,0.4-0.6c0-0.2,0-0.5,0-0.8
		C3.8,9.3,3.5,9.4,3.2,9.6c0,0-0.1,0.1-0.1,0.1C3.2,10,3.2,10.4,3.2,10.8z M1.9,11.3c0.3-0.1,0.6-0.3,0.9-0.4c0,0,0.1-0.1,0.1-0.1
		c0-0.3,0-0.5,0-0.8c0-0.1,0-0.1,0-0.2C2.6,9.9,2.3,10,2,10.2c0,0-0.1,0.1-0.1,0.1C1.9,10.6,1.9,11,1.9,11.3z M4.3,12.8
		c-0.3,0.2-0.6,0.3-0.9,0.4c0,0,0,0.1,0,0.1c0,0.4,0,0.7,0,1.1C3.7,14.3,4,14.1,4.3,14c0,0,0-0.1,0-0.1C4.3,13.5,4.3,13.2,4.3,12.8z
		 M3,13.4c-0.2,0.1-0.3,0.2-0.5,0.2C2.1,13.7,2,13.9,2,14.3c0,0.2,0,0.4,0,0.6c0.3-0.1,0.6-0.3,0.9-0.4c0,0,0.1-0.1,0.1-0.1
		C3,14.1,3,13.7,3,13.4z"/>
	<path class="st0" d="M14,18.1c-1.2,0-2.4,0-3.5,0c0-5.4,0-10.8,0-16.2c0,0,0.1,0,0.1,0.1c1.1,0.7,2.2,1.4,3.3,2.1
		C13.9,4.2,14,4.3,14,4.4c0,4.5,0,9.1,0,13.6C14,18,14,18,14,18.1z"/>
	<path class="st0" d="M14.3,11.9c0.6,0.2,1.1,0.4,1.6,0.5c0.9,0.3,1.7,0.5,2.6,0.8c0.1,0,0.2,0,0.2,0.2c0,1.5,0,3,0,4.5
		c0,0,0,0.1,0,0.1c-1.4,0-2.9,0-4.3,0C14.3,16,14.3,14,14.3,11.9z M16.4,14.8c0.4,0.1,0.9,0.3,1.3,0.4c0-0.3,0-0.7,0-1
		c0,0,0-0.1-0.1-0.1c-0.4-0.2-0.8-0.3-1.3-0.5C16.4,14,16.4,14.4,16.4,14.8z M17.8,17.2c0-0.3,0-0.6,0-0.9c0-0.1,0-0.2-0.1-0.2
		c-0.3-0.1-0.7-0.3-1-0.4c0,0-0.1,0-0.2,0c0,0.4,0,0.8,0,1.1C16.9,16.9,17.3,17,17.8,17.2z M16.1,16.7c0-0.3,0-0.6,0-1
		c0-0.1-0.1-0.1-0.1-0.1c-0.4-0.1-0.7-0.3-1.1-0.4c0,0-0.1,0-0.1,0c0,0.4,0,0.7,0,1.1c0,0,0,0.1,0.1,0.1
		C15.2,16.5,15.6,16.6,16.1,16.7z M16.1,14.7c0-0.3,0-0.6,0-0.9c0-0.1,0-0.2-0.1-0.2c-0.2-0.1-0.4-0.2-0.7-0.2
		c-0.2-0.1-0.3-0.1-0.5-0.2c0,0.4,0,0.7,0,1.1c0,0,0.1,0.1,0.1,0.1C15.3,14.4,15.7,14.6,16.1,14.7z"/>
</g>
</svg>
