<?xml version="1.0" encoding="utf-8"?>
<!-- Generator: Adobe Illustrator 26.0.2, SVG Export Plug-In . SVG Version: 6.00 Build 0)  -->
<svg version="1.1" id="Layer_1" xmlns="http://www.w3.org/2000/svg" xmlns:xlink="http://www.w3.org/1999/xlink" x="0px" y="0px"
	 viewBox="0 0 384.4 281.9" style="enable-background:new 0 0 384.4 281.9;" xml:space="preserve">
<style type="text/css">
	.st0{fill:#FFFFFF;}
</style>
<g>
	<path class="st0" d="M184.9,21.5c43,0,86,0,129,0c20.7,0,34.3,13.6,34.3,34.3c0,52.6,0,105.2,0,157.8c0,20.4-13.7,34.2-34.1,34.2
		c-86.2,0-172.4,0-258.7,0c-20.2,0-33.9-13.8-33.9-34c0-52.9,0-105.7,0-158.6c0-20.1,13.8-33.8,34-33.8
		C98.7,21.5,141.8,21.5,184.9,21.5z M42.7,231.9c4.2,3.2,8.6,3.5,13.2,3.5c86,0,171.9,0,257.9,0c1.5,0,3.1,0.2,4.5-0.2
		c3-0.8,5.9-1.8,9.5-2.9c-31-35.3-61.3-69.8-91.7-104.5c-1.2,1-2.1,1.8-3.1,2.6c-14.2,12.5-28.3,25-42.4,37.4c-4.6,4-6.8,4-11.3,0
		c-15-13.2-30-26.4-45.2-39.9C103.6,162.6,73.3,197.1,42.7,231.9z M47.4,35.1c46,40.6,91.7,80.9,137.5,121.4
		c45.9-40.5,91.5-80.8,137.4-121.3C317.3,33.3,53.6,33.2,47.4,35.1z M34.7,222.5c30.6-34.8,60.2-68.7,90.1-102.7
		c-29.4-25.9-58.3-51.5-87.3-77c-0.4,0.1-0.9,0.1-1.3,0.2c-0.7,3.8-2.1,7.6-2.1,11.5c-0.1,53.5-0.1,106.9-0.1,160.4
		C34,217,34.4,219.2,34.7,222.5z M334.3,221.1c0.4-0.1,0.7-0.2,1.1-0.3c0.1-2.3,0.4-4.6,0.4-7c0-52.8,0-105.7,0-158.5
		c0-1.4,0.1-2.8-0.2-4.1c-0.7-2.8-1.7-5.6-2.7-8.9c-29.6,26.1-58.5,51.6-87.6,77.3C275,153.6,304.6,187.3,334.3,221.1z"/>
</g>
</svg>
