<?xml version="1.0" encoding="utf-8"?>
<!-- Generator: Adobe Illustrator 26.0.2, SVG Export Plug-In . SVG Version: 6.00 Build 0)  -->
<svg version="1.1" id="Layer_1" xmlns="http://www.w3.org/2000/svg" xmlns:xlink="http://www.w3.org/1999/xlink" x="0px" y="0px"
	 viewBox="0 0 284.4 281.9" style="enable-background:new 0 0 284.4 281.9;" xml:space="preserve">
<style type="text/css">
	.st0{fill:#FFFFFF;}
</style>
<g>
	<path class="st0" d="M142.4,12.8c-69.5,0-126.3,56.7-126.3,126c0,21.1,5.6,42.3,15.9,60.8l-18.3,68.2l68.6-18.2
		c18.6,10,39.2,15.3,60.1,15.3c69.5,0,126.3-56.7,126.3-126C268.7,69.5,211.9,12.8,142.4,12.8z M142.4,241.1
		c-18.3,0-36.5-5-52.1-14.7l-4.4-2.3l-38.6,10.3l10.3-38.2l-2.6-4.4c-9.7-15.9-15-34.4-15-52.9C40,82.5,85.9,36.6,142.4,36.6
		c56.5,0,102.4,45.8,102.4,102.2C244.9,195.3,199,241.1,142.4,241.1z"/>
	<g>
		<path class="st0" d="M87,94c0.7,0.8,1.2,1.4,1.7,1.9c7.7,6.6,15.5,13.1,23.2,19.7c0.6,0.5,0.8,1.1,1,1.9c0.5,2.4,1,4.8,2,6.9
			c3.4,7.4,8.4,13.6,14.1,19.3c8.2,8.4,17.5,15.4,28.2,20.4c4.3,2,8.8,3.7,13.6,4c0.2,0,0.4,0.1,0.5,0c2.1-0.7,3.4,0.6,4.7,1.8
			c7.4,6.3,14.8,12.5,22.2,18.8c0.4,0.3,0.8,0.6,1.4,0.9c-2.7,3.2-5.8,5.3-9.4,6.6c-6.9,2.6-13.9,2.6-21,1.3
			c-11.6-2.1-22.2-6.9-32.2-13c-16.5-10.1-30.6-22.8-41.9-38.6c-5.6-7.8-10.1-16.1-12.4-25.4c-1.7-7-2-14,1-20.7
			C84.6,97.9,85.8,96.2,87,94z"/>
		<path class="st0" d="M115.4,113.6c-8.8-7.4-17.3-14.7-25.9-21.9c1.9-2.3,3.8-4.8,5.9-7c2.9-3,7.6-3.2,10.8-0.6
			c4.6,3.8,9.2,7.7,13.8,11.6c3.4,3,3.7,8,0.8,11.5C118.9,109.4,117.2,111.5,115.4,113.6z"/>
		<path class="st0" d="M202,187c-8.7-7.3-17.2-14.6-26.1-22.1c2.3-2.5,4.5-5.4,7.2-7.7c2.7-2.3,6.9-2,9.6,0.2
			c4.7,3.9,9.4,7.8,14,11.8c3.1,2.8,3.5,7.5,1,10.9c-0.2,0.2-0.3,0.4-0.5,0.6C205.4,182.8,203.7,184.9,202,187z"/>
	</g>
</g>
</svg>
